<svg width="91" height="107" viewBox="0 0 91 107" fill="none" xmlns="http://www.w3.org/2000/svg">
<g clip-path="url(#clip0_3_16792)">
<path d="M9.00082 27.0373C12.2428 33.8583 16.7566 40.0555 21.8324 45.6822C27.6704 51.9749 34.2262 57.5742 40.972 62.7698C44.1155 65.2319 47.5875 67.3078 51.5086 68.0151C53.2917 68.3821 55.2649 68.3454 57.0127 67.8529C59.1154 67.3338 60.6379 66.3854 62.03 64.7792C62.4364 64.3316 62.5659 63.8491 62.4183 63.3318C63.0746 61.4193 62.8393 59.3233 62.3705 57.4117C61.5026 54.1673 59.9078 51.1163 58.2959 48.2058C54.6818 41.5517 50.3238 35.2316 45.1873 29.526C40.4146 24.2937 35.1143 19.3513 28.9495 15.7251C25.997 13.9996 23.01 12.5548 19.833 11.5136C16.8552 10.5687 13.3405 9.41378 10.4078 10.9685C4.32613 14.1219 6.70371 22.2591 9.00082 27.0373ZM16.0621 14.7441C18.8753 15.312 21.559 16.3624 24.1477 17.6145C29.5241 20.2152 34.3303 24.0266 38.7644 28.005C43.6837 32.6144 48.1188 37.7329 51.9311 43.3431C53.8978 46.2271 55.6483 49.1551 57.3209 52.1445C58.5862 54.4414 60.0335 56.975 60.4163 59.5883C60.5032 60.0268 60.5122 60.5267 60.5212 61.0266C60.1058 60.9743 59.751 61.0009 59.3011 61.2293C57.0346 62.5116 54.5771 63.0573 52.0238 62.6646C49.2712 62.1756 46.7948 60.5814 44.6732 58.9605C39.391 55.0179 34.2988 50.6717 29.4401 46.1411C24.6593 41.5491 20.1899 36.7112 16.5161 31.1185C14.7312 28.4712 13.0414 25.622 11.8014 22.5445C10.9778 20.6595 10.2836 18.292 10.8793 16.3006C11.6478 14.046 14.1405 14.3598 16.0621 14.7441Z" fill="#F7F7F7"/>
<path d="M22.7195 29.2623C19.2961 34.2467 19.7684 40.719 22.3687 45.8916C23.8856 49.004 26.0081 51.765 28.1306 54.5261C30.2703 57.1468 32.4099 59.7675 34.5496 62.3883C38.1791 66.6216 41.8258 70.7146 45.6888 74.7636C45.5331 74.8865 45.4987 75.1672 45.62 75.3249C47.3261 76.8935 49.0323 78.4621 50.7384 80.0307C54.9997 84.2723 59.2782 88.3736 63.773 92.4308C67.9039 96.0147 74.2261 101.798 79.6146 97.4176C80.8601 96.4343 80.651 94.6979 79.707 93.7953C81.2195 91.2068 81.4504 87.6019 80.9464 84.8308C80.216 80.4636 77.937 76.6853 75.2688 73.2142C72.2367 69.2698 68.8932 65.5713 65.7054 61.7498C59.7977 54.8783 54.1408 47.6821 47.7661 41.1794C41.5127 34.8344 34.1088 29.2709 25.09 28.2781C24.1813 28.235 23.1603 28.534 22.7195 29.2623ZM58.4426 59.6243C61.5435 63.0073 64.6444 66.3903 67.7453 69.7733C70.725 72.9985 73.9209 76.1797 76.1221 80.0195C77.916 83.1667 79.0093 86.8671 78.2073 90.5426C77.8705 91.569 77.5166 92.7358 76.7816 93.5695C76.2711 93.719 75.5614 93.7722 75.146 93.7199C74.3929 93.5539 73.5186 93.2301 72.6614 92.7659C70.8258 91.6798 69.059 90.0323 67.4135 88.5426C62.7196 84.389 58.2592 80.0511 53.816 75.5728C49.3728 71.0946 45.1631 66.4319 40.9707 61.6289C36.9601 57.0626 32.7677 52.2596 29.2414 47.1842C26.6682 43.5114 24.1629 38.137 26.1154 33.68C32.1744 34.7277 37.5083 38.2493 42.0637 42.3854C47.9614 47.6168 53.1848 53.7609 58.4426 59.6243Z" fill="#322679"/>
</g>
<defs>
<clipPath id="clip0_3_16792">
<rect width="110.846" height="28.9601" fill="white" transform="matrix(-0.609454 -0.792821 0.784883 -0.619644 68.0942 106.514)"/>
</clipPath>
</defs>
</svg>
